<svg version="1.1" xmlns="http://www.w3.org/2000/svg" xmlns:xlink="http://www.w3.org/1999/xlink" x="0px" y="0px"
	 viewBox="0 0 100 100" style="enable-background:new 0 0 100 100;" xml:space="preserve">
<g id="Vrstva_163">
	<g>
		<g>
			<g>
				<path d="M18.999,76.475c-0.829,0-1.5-0.672-1.5-1.5c0-6.313,4.728-9.49,8.283-11.33c3.408-1.764,5.63-2.348,7.591-2.863
					c2.104-0.554,3.766-0.99,6.409-2.871c0.678-0.48,1.613-0.321,2.092,0.354c0.48,0.675,0.322,1.611-0.353,2.092
					c-3.09,2.197-5.176,2.746-7.385,3.327c-1.811,0.476-3.862,1.016-6.975,2.626c-4.607,2.385-6.662,5.058-6.662,8.666
					C20.499,75.803,19.828,76.475,18.999,76.475z"/>
			</g>
			<g>
				<path d="M81.792,76.475c-0.829,0-1.5-0.672-1.5-1.5c0-3.608-2.055-6.281-6.662-8.666c-3.113-1.61-5.165-2.15-6.975-2.626
					c-2.208-0.581-4.295-1.13-7.385-3.327c-0.675-0.48-0.833-1.417-0.353-2.092c0.48-0.675,1.416-0.834,2.092-0.354
					c2.643,1.881,4.305,2.317,6.409,2.871c1.96,0.516,4.183,1.1,7.591,2.863c3.556,1.84,8.283,5.017,8.283,11.33
					C83.292,75.803,82.621,76.475,81.792,76.475z"/>
			</g>
			<g>
				<path d="M49.878,56.721c-6.126,0-8.452-4.688-10.504-8.824c-0.288-0.581-0.579-1.167-0.883-1.75
					c-0.159-0.11-0.48-0.284-0.705-0.405c-0.823-0.445-1.675-0.904-2.008-1.741c-0.843-2.125-1.302-5.193-1.383-7.292
					c-0.037-1.063,0.747-1.501,2.045-2.225c0.144-0.081,0.334-0.186,0.508-0.287c-0.011-1.695-0.057-2.923-0.092-3.851
					c-0.047-1.246-0.075-1.998,0.031-2.673c0.897-5.656,5.268-8.522,12.992-8.522c0.829,0,1.5,0.671,1.5,1.5s-0.671,1.5-1.5,1.5
					c-8.137,0-9.621,3.419-10.028,5.991c-0.061,0.385-0.035,1.064,0.004,2.091c0.041,1.081,0.097,2.562,0.097,4.703
					c0,1.024-0.771,1.454-2.048,2.167c-0.132,0.073-0.302,0.168-0.463,0.261c0.129,1.655,0.482,3.788,1.047,5.321
					c0.178,0.121,0.511,0.301,0.726,0.417c0.767,0.414,1.491,0.805,1.856,1.497c0.344,0.653,0.671,1.312,0.994,1.964
					c2.202,4.438,3.757,7.158,7.817,7.158c0.829,0,1.5,0.672,1.5,1.5C51.378,56.049,50.707,56.721,49.878,56.721z"/>
			</g>
			<g>
				<path d="M50.466,56.721c-0.829,0-1.5-0.672-1.5-1.5c0-0.828,0.671-1.5,1.5-1.5c4.058,0,5.613-2.718,7.813-7.152
					c0.325-0.654,0.653-1.315,0.998-1.97c0.363-0.691,1.087-1.082,1.854-1.496c0.214-0.116,0.547-0.296,0.725-0.417
					c0.545-1.48,0.914-3.627,1.048-5.322c-0.161-0.093-0.332-0.188-0.464-0.262c-1.276-0.712-2.046-1.143-2.046-2.166
					c0-2.133,0.056-3.612,0.096-4.691c0.039-1.033,0.064-1.715,0.002-2.103c-0.408-2.573-1.891-5.992-10.026-5.992
					c-0.829,0-1.5-0.671-1.5-1.5s0.671-1.5,1.5-1.5c7.722,0,12.093,2.867,12.989,8.521c0.108,0.677,0.08,1.433,0.032,2.685
					c-0.035,0.926-0.081,2.151-0.091,3.839c0.173,0.1,0.363,0.206,0.506,0.286c1.302,0.727,2.089,1.166,2.044,2.23
					c-0.079,2.089-0.537,5.157-1.381,7.286c-0.335,0.838-1.186,1.298-2.008,1.743c-0.224,0.121-0.546,0.295-0.704,0.405
					c-0.305,0.585-0.597,1.173-0.886,1.756C58.915,52.035,56.59,56.721,50.466,56.721z"/>
			</g>
			<g>
				<path d="M50.034,87.85c-12.868,0-23.952-3.974-32.055-11.492c-0.608-0.563-0.643-1.513-0.08-2.12
					c0.564-0.606,1.513-0.642,2.12-0.079c7.539,6.994,17.918,10.691,30.015,10.691c13.193,0,23.529-3.534,30.722-10.505
					c0.595-0.577,1.544-0.562,2.121,0.033c0.577,0.595,0.561,1.545-0.033,2.121C75.072,84.03,64.033,87.85,50.034,87.85z"/>
			</g>
		</g>
		<g>
			<g>
				<path d="M97.792,65.342c-0.828,0-1.5-0.672-1.5-1.5c0-3.287-1.879-5.726-6.094-7.906c-2.864-1.481-4.753-1.979-6.419-2.417
					c-2.051-0.539-3.988-1.049-6.86-3.091c-0.675-0.48-0.833-1.417-0.353-2.091c0.479-0.676,1.417-0.835,2.091-0.353
					c2.426,1.725,3.952,2.127,5.884,2.634c1.817,0.478,3.876,1.02,7.036,2.654c3.312,1.713,7.715,4.673,7.715,10.57
					C99.292,64.67,98.62,65.342,97.792,65.342z"/>
			</g>
			<g>
				<path d="M62.201,16.122c-0.594,0-1.156-0.355-1.392-0.94c-0.309-0.768,0.062-1.643,0.831-1.952
					c1.803-0.726,3.984-1.079,6.668-1.079c0.829,0,1.5,0.671,1.5,1.5s-0.671,1.5-1.5,1.5c-2.261,0-4.127,0.29-5.547,0.862
					C62.577,16.086,62.387,16.122,62.201,16.122z"/>
			</g>
			<g>
				<path d="M75.867,42.471c-0.256,0-0.516-0.066-0.753-0.204c-0.716-0.417-0.959-1.335-0.542-2.051
					c0.48-0.826,0.925-1.722,1.396-2.67c0.3-0.605,0.604-1.217,0.923-1.823c0.35-0.669,1.035-1.039,1.761-1.431
					c0.184-0.099,0.464-0.251,0.628-0.358c0.485-1.337,0.816-3.249,0.942-4.78c-0.13-0.075-0.263-0.149-0.369-0.208
					c-1.167-0.652-1.938-1.083-1.946-2.088c0-1.993,0.052-3.362,0.09-4.361c0.036-0.941,0.059-1.562,0.005-1.908
					c-0.371-2.334-1.723-5.439-9.151-5.439c-0.829,0-1.5-0.671-1.5-1.5s0.671-1.5,1.5-1.5c7.199,0,11.274,2.682,12.114,7.97
					c0.101,0.636,0.074,1.334,0.03,2.491c-0.032,0.844-0.074,1.957-0.085,3.487c0.142,0.081,0.291,0.165,0.407,0.229
					c1.198,0.669,1.99,1.112,1.951,2.162c-0.074,1.945-0.499,4.793-1.284,6.774c-0.324,0.814-1.129,1.249-1.906,1.668
					c-0.194,0.105-0.47,0.254-0.618,0.352c-0.277,0.533-0.542,1.067-0.805,1.596c-0.472,0.951-0.96,1.934-1.49,2.846
					C76.886,42.204,76.383,42.471,75.867,42.471z"/>
			</g>
			<g>
				<path d="M92.438,69.941c-0.501,0-0.991-0.251-1.275-0.707c-0.438-0.704-0.223-1.629,0.481-2.066
					c1.844-1.147,3.564-2.49,5.112-3.991c0.594-0.577,1.545-0.562,2.121,0.033c0.576,0.595,0.562,1.544-0.033,2.121
					c-1.701,1.648-3.59,3.124-5.615,4.384C92.983,69.868,92.709,69.941,92.438,69.941z"/>
			</g>
		</g>
		<g>
			<g>
				<path d="M2.208,65.342c-0.829,0-1.5-0.672-1.5-1.5c0-5.897,4.403-8.857,7.715-10.57c3.159-1.635,5.218-2.176,7.036-2.654
					c1.932-0.508,3.458-0.909,5.884-2.634c0.677-0.48,1.612-0.321,2.091,0.353c0.48,0.675,0.322,1.611-0.353,2.091
					c-2.872,2.042-4.809,2.552-6.86,3.091c-1.666,0.438-3.556,0.936-6.419,2.417c-4.214,2.181-6.094,4.619-6.094,7.906
					C3.708,64.67,3.037,65.342,2.208,65.342z"/>
			</g>
			<g>
				<path d="M37.799,16.122c-0.186,0-0.376-0.035-0.56-0.109c-1.42-0.572-3.286-0.862-5.547-0.862c-0.829,0-1.5-0.671-1.5-1.5
					s0.671-1.5,1.5-1.5c2.684,0,4.865,0.353,6.668,1.079c0.769,0.309,1.14,1.184,0.831,1.952
					C38.956,15.766,38.393,16.122,37.799,16.122z"/>
			</g>
			<g>
				<path d="M24.133,42.471c-0.517,0-1.02-0.268-1.298-0.746c-0.53-0.912-1.018-1.895-1.49-2.846
					c-0.263-0.529-0.528-1.064-0.805-1.596c-0.147-0.098-0.423-0.247-0.618-0.352c-0.778-0.42-1.582-0.854-1.905-1.665
					c-0.786-1.984-1.211-4.833-1.285-6.776c-0.039-1.051,0.753-1.493,1.951-2.163c0.116-0.064,0.265-0.148,0.407-0.229
					c-0.011-1.527-0.053-2.643-0.085-3.487c-0.043-1.157-0.07-1.855,0.03-2.49c0.84-5.29,4.916-7.971,12.114-7.971
					c0.829,0,1.5,0.671,1.5,1.5s-0.671,1.5-1.5,1.5c-7.428,0-8.781,3.105-9.151,5.44c-0.054,0.344-0.031,0.966,0.005,1.907
					c0.038,1,0.09,2.369,0.09,4.35c-0.007,1.016-0.779,1.447-1.946,2.099c-0.105,0.059-0.238,0.133-0.369,0.208
					c0.126,1.529,0.457,3.441,0.942,4.78c0.163,0.107,0.445,0.259,0.628,0.358c0.726,0.392,1.411,0.762,1.763,1.435
					c0.317,0.603,0.621,1.214,0.921,1.819c0.471,0.949,0.916,1.845,1.396,2.67c0.417,0.716,0.174,1.634-0.542,2.051
					C24.649,42.405,24.389,42.471,24.133,42.471z"/>
			</g>
			<g>
				<path d="M7.562,69.941c-0.271,0-0.544-0.073-0.791-0.227c-2.025-1.26-3.914-2.735-5.615-4.384
					c-0.595-0.577-0.61-1.526-0.033-2.121c0.578-0.596,1.527-0.608,2.121-0.033c1.548,1.501,3.268,2.844,5.112,3.991
					c0.704,0.438,0.919,1.362,0.481,2.066C8.553,69.69,8.063,69.941,7.562,69.941z"/>
			</g>
		</g>
	</g>
</g>
<script  type="text/javascript">
    <![CDATA[
         var c=window.location.search.split('color=')[1]; c=parseInt(c,16); if(!isNaN(c)){c=c.toString(16);var p=document.getElementsByTagName('path');for(var i=0,l=p.length;i<l;i++){var s=p[i].style;s.fill='#'+c;} var p2=document.getElementsByTagName('polygon');for(var i=0,l=p2.length;i<l;i++){var s=p2[i].style;s.fill='#'+c;} var p3=document.getElementsByTagName('circle');for(var i=0,l=p3.length;i<l;i++){var s=p3[i].style;s.fill='#'+c;} }
        ]]>
</script>
</svg>
